<?xml version="1.0" encoding="UTF-8" standalone="no"?>
<!DOCTYPE svg PUBLIC "-//W3C//DTD SVG 1.1//EN" "http://www.w3.org/Graphics/SVG/1.1/DTD/svg11.dtd">
<svg width="100%" height="100%" viewBox="0 0 200 200" version="1.1" xmlns="http://www.w3.org/2000/svg" xmlns:xlink="http://www.w3.org/1999/xlink" xml:space="preserve" style="fill-rule:evenodd;clip-rule:evenodd;stroke-linejoin:round;stroke-miterlimit:1.41421;">
    <path id="Combined-Shape" d="M100,200C155.228,200 200,155.228 200,100C200,44.772 155.228,0 100,0C44.772,0 0,44.772 0,100C0,155.228 44.772,200 100,200ZM100,181C144.735,181 181,144.735 181,100C181,55.265 144.735,19 100,19C55.265,19 19,55.265 19,100C19,144.735 55.265,181 100,181Z" style="fill:white;"/>
    <path id="Oval-2" d="M100,176C141.421,176 175,142.421 175,101C175,59.579 141.421,107.82 100,107.82C58.579,107.82 25,59.579 25,101C25,142.421 58.579,176 100,176Z" style="fill:white;"/>
</svg>
